<svg width="980" height="260" viewBox="0 0 980 260" fill="none" xmlns="http://www.w3.org/2000/svg" aria-label="Lightheart Tech logo">
  <g transform="translate(26,24) scale(1.2)">
  <polygon
    points="143.3,28.6 143.3,14.3 129,14.3 129,0 100.4,0 100.4,14.3 86.1,14.3 86.1,28.6 71.5,28.6 71.5,14.3 57.2,14.3 57.2,0 28.6,0 28.6,14.3 14.3,14.3 14.3,28.6 0,28.6 0,70.6 14.3,70.6 14.3,84.9 28.6,84.9 28.6,99.2 42.9,99.2 42.9,113.5 57.2,113.5 57.2,127.8 71.5,127.8 71.5,142.1 86.1,142.1 86.1,127.8 100.4,127.8 100.4,113.5 114.7,113.5 114.7,99.2 129,99.2 129,84.9 143.3,84.9 143.3,70.6 157.6,70.6 157.6,28.6"
    fill="#1498D2"
  />

  <g stroke="#FFFFFF" stroke-width="3" stroke-linecap="round" stroke-linejoin="round">
    <path d="M16 42H45L54 50" />
    <path d="M16 56H40L49 56" />
    <path d="M20 69H49" />
    <path d="M32 83H50L50 98" />
    <path d="M40 33V45L50 45" />

    <path d="M142 42H113L104 50" />
    <path d="M142 56H118L109 56" />
    <path d="M138 69H109" />
    <path d="M126 83H108L108 98" />
    <path d="M118 33V45H108" />

    <path d="M79 87V121" />
    <path d="M70 106V117" />
    <path d="M88 106V117" />
  </g>

  <g fill="#FFFFFF">
    <circle cx="16" cy="42" r="4" />
    <circle cx="16" cy="56" r="4" />
    <circle cx="20" cy="69" r="4" />
    <circle cx="32" cy="83" r="4" />
    <circle cx="40" cy="33" r="4" />

    <circle cx="142" cy="42" r="4" />
    <circle cx="142" cy="56" r="4" />
    <circle cx="138" cy="69" r="4" />
    <circle cx="126" cy="83" r="4" />
    <circle cx="118" cy="33" r="4" />

    <circle cx="79" cy="121" r="4" />
    <circle cx="70" cy="117" r="4" />
    <circle cx="88" cy="117" r="4" />
  </g>

  <g stroke="#FFFFFF" stroke-width="3" stroke-linecap="round" stroke-linejoin="round" fill="none">
    <path d="M79 44V88" />
    <path d="M79 56H64L56 64" />
    <path d="M79 56H94L102 64" />
    <path d="M79 70H67" />
    <path d="M79 70H91" />
    <path d="M79 82H69L62 90" />
    <path d="M79 82H89L96 90" />
  </g>

  <g fill="#FFFFFF">
    <circle cx="79" cy="44" r="4" />
    <circle cx="56" cy="64" r="4" />
    <circle cx="67" cy="70" r="4" />
    <circle cx="62" cy="90" r="4" />
    <circle cx="102" cy="64" r="4" />
    <circle cx="91" cy="70" r="4" />
    <circle cx="96" cy="90" r="4" />
  </g>
  </g>

  <text x="260" y="123" fill="#1E6FB3" font-size="108" font-weight="700" font-family="Arial, Helvetica, sans-serif">Lightheart</text>
  <text x="420" y="210" fill="#99A6B3" font-size="102" font-weight="400" font-family="Arial, Helvetica, sans-serif">Tech</text>
</svg>
